<svg id="visual" viewBox="0 0 900 600" width="900" height="600" xmlns="http://www.w3.org/2000/svg" xmlns:xlink="http://www.w3.org/1999/xlink" version="1.1">
<rect x="0" y="0" width="900" height="600" fill="#21000a"></rect>
<path d="M347 0L386 0L386 40L372 40L372 80L336 80L336 120L374 120L374 160L350 160L350 200L411 200L411 240L374 240L374 280L406 280L406 320L333 320L333 360L319 360L319 400L412 400L412 440L393 440L393 480L376 480L376 520L380 520L380 560L359 560L359 600L0 600L0 560L0 560L0 520L0 520L0 480L0 480L0 440L0 440L0 400L0 400L0 360L0 360L0 320L0 320L0 280L0 280L0 240L0 240L0 200L0 200L0 160L0 160L0 120L0 120L0 80L0 80L0 40L0 40L0 0L0 0Z" fill="#ff0027">
</path>
<path d="M261 0L245 0L245 40L280 40L280 80L298 80L298 120L253 120L253 160L304 160L304 200L256 200L256 240L250 240L250 280L326 280L326 320L271 320L271 360L250 360L250 400L247 400L247 440L257 440L257 480L313 480L313 520L268 520L268 560L239 560L239 600L0 600L0 560L0 560L0 520L0 520L0 480L0 480L0 440L0 440L0 400L0 400L0 360L0 360L0 320L0 320L0 280L0 280L0 240L0 240L0 200L0 200L0 160L0 160L0 120L0 120L0 80L0 80L0 40L0 40L0 0L0 0Z" fill="#da002b">
</path>
<path d="M233 0L160 0L160 40L174 40L174 80L179 80L179 120L171 120L171 160L182 160L182 200L183 200L183 240L230 240L230 280L187 280L187 320L220 320L220 360L188 360L188 400L198 400L198 440L221 440L221 480L180 480L180 520L221 520L221 560L226 560L226 600L0 600L0 560L0 560L0 520L0 520L0 480L0 480L0 440L0 440L0 400L0 400L0 360L0 360L0 320L0 320L0 280L0 280L0 240L0 240L0 200L0 200L0 160L0 160L0 120L0 120L0 80L0 80L0 40L0 40L0 0L0 0Z" fill="#b4002a">
</path>
<path d="M139 0L86 0L86 40L98 40L98 80L137 80L137 120L124 120L124 160L122 160L122 200L92 200L92 240L116 240L116 280L91 280L91 320L115 320L115 360L116 360L116 400L84 400L84 440L81 440L81 480L121 480L121 520L103 520L103 560L114 560L114 600L0 600L0 560L0 560L0 520L0 520L0 480L0 480L0 440L0 440L0 400L0 400L0 360L0 360L0 320L0 320L0 280L0 280L0 240L0 240L0 200L0 200L0 160L0 160L0 120L0 120L0 80L0 80L0 40L0 40L0 0L0 0Z" fill="#8f0027">
</path>
</svg>